<svg width="183" height="45" viewBox="0 0 183 45" fill="none" xmlns="http://www.w3.org/2000/svg">
<path d="M10.9801 10.4028C10.9758 10.4196 10.9707 10.4363 10.965 10.453" stroke="#0F1520" stroke-width="2.88762"/>
<path d="M11.6946 11.4895L2.69505 16.957C2.68108 16.9654 2.66946 16.9775 2.66138 16.9921C2.6533 17.0068 2.64905 17.0234 2.64905 17.0403C2.64905 17.0573 2.6533 17.0739 2.66138 17.0885C2.66946 17.1032 2.68108 17.1153 2.69505 17.1237L10.186 21.6757C10.2737 21.7291 10.373 21.7571 10.4738 21.7571C10.5747 21.7571 10.6736 21.7291 10.7604 21.6757L16.5174 18.1761" stroke="#0F1520" stroke-width="2.88762"/>
<path d="M17.1269 19.1372L11.1748 22.7464C11.1194 22.7798 11.0734 22.8278 11.0415 22.8855C11.0095 22.9433 10.9927 23.0087 10.9927 23.0752L10.9949 32.2067C10.995 32.2334 11.0018 32.2596 11.0145 32.2827C11.0271 32.3057 11.0454 32.3249 11.0673 32.3383C11.0892 32.3517 11.114 32.3588 11.1394 32.359C11.1647 32.3591 11.1896 32.3523 11.2117 32.3391L17.2677 28.6523" stroke="#0F1520" stroke-width="2.88762"/>
<path d="M17.4936 29.8273L10.6528 33.9799C10.5916 34.0174 10.5219 34.0371 10.4508 34.0371C10.3796 34.0371 10.3095 34.0174 10.2475 33.9799C7.75196 32.4732 5.21956 30.9353 2.65031 29.3662C2.61997 29.3464 2.58457 29.354 2.54411 29.389C2.53325 29.3986 2.52536 29.4111 2.52148 29.425C2.51761 29.4389 2.51794 29.4534 2.52243 29.4666L6.30911 40.9906C6.32267 41.031 6.34673 41.0665 6.37854 41.0931C6.41035 41.1198 6.44863 41.1365 6.48901 41.1413L17.1251 42.4334" stroke="#0F1520" stroke-width="2.88762"/>
<path d="M2.14956 18.1222C2.13438 18.113 2.11715 18.1081 2.09962 18.1082C2.08209 18.1082 2.06487 18.1131 2.0497 18.1223C2.03453 18.1316 2.02195 18.1449 2.01323 18.1609C2.0045 18.1769 1.99994 18.1951 2 18.2135L2.00217 27.5779C2.00211 27.5964 2.00668 27.6146 2.01544 27.6306C2.02419 27.6467 2.03681 27.66 2.05202 27.6692L9.76193 32.3446C9.77712 32.3538 9.79434 32.3587 9.81188 32.3587C9.82941 32.3586 9.84663 32.3538 9.86179 32.3445C9.87696 32.3352 9.88954 32.3219 9.89827 32.3059C9.90699 32.2899 9.91155 32.2717 9.91149 32.2533L9.89849 22.9071C9.89817 22.889 9.89342 22.8713 9.88468 22.8557C9.87595 22.8401 9.86353 22.8272 9.84864 22.8181L2.14956 18.1222Z" stroke="#0F1520" stroke-width="2.88762"/>
<path d="M17.1288 42.433C19.883 42.7541 22.6423 43.0843 25.4066 43.4237C25.5077 43.4359 25.5894 43.4367 25.6515 43.426C25.7281 43.4123 25.7324 43.3849 25.6645 43.3438L18.49 39.0063C18.4751 38.9973 18.4628 38.9844 18.4542 38.9687C18.4456 38.9531 18.4411 38.9354 18.4411 38.9173C18.4411 38.8993 18.4456 38.8815 18.4542 38.8659C18.4628 38.8503 18.4751 38.8373 18.49 38.8283L36.2117 28.0668C36.2257 28.0584 36.2373 28.0463 36.2454 28.0316C36.2535 28.017 36.2577 28.0004 36.2577 27.9834C36.2577 27.9665 36.2535 27.9499 36.2454 27.9353C36.2373 27.9206 36.2257 27.9085 36.2117 27.9001L28.7034 23.3366C28.6211 23.2873 28.528 23.2616 28.4333 23.262C28.3386 23.2624 28.2456 23.2889 28.1637 23.3389L17.4973 29.8269" stroke="#0F1520" stroke-width="2.88762"/>
<path d="M17.2675 28.649L27.6869 22.3163C27.7489 22.2781 27.8004 22.2236 27.8361 22.1583C27.8719 22.093 27.8907 22.0192 27.8906 21.9442L27.8928 12.84C27.8928 12.8139 27.8862 12.7882 27.8737 12.7656C27.8613 12.7429 27.8434 12.7242 27.8218 12.7112C27.8002 12.6982 27.7758 12.6915 27.7509 12.6917C27.7261 12.6918 27.7018 12.6989 27.6804 12.7122L17.1266 19.1339" stroke="#0F1520" stroke-width="2.88762"/>
<path d="M16.5179 18.181L28.2377 11.0538C28.3049 11.0129 28.381 10.9914 28.4583 10.9914C28.5356 10.9914 28.6113 11.0129 28.6777 11.0538L36.1384 15.5922C36.3378 15.7139 36.3999 15.6599 36.3248 15.4301L32.6031 4.12297C32.5803 4.05385 32.5395 3.99295 32.4854 3.9473C32.4314 3.90165 32.3662 3.87312 32.2975 3.86501L13.4833 1.57756C13.151 1.53646 13.1293 1.60419 13.4183 1.78073L20.3653 5.9995C20.3836 6.01078 20.3989 6.02689 20.4096 6.0462C20.4203 6.06552 20.4261 6.08737 20.4263 6.10956C20.4265 6.13175 20.4212 6.15351 20.4108 6.17266C20.4005 6.1918 20.3855 6.20767 20.3674 6.21866L11.6951 11.4944" stroke="#0F1520" stroke-width="2.88762"/>
<path d="M10.965 10.4661C11.0416 10.5331 11.1218 10.5407 11.2056 10.489C13.6794 8.96551 16.0095 7.54632 18.1959 6.23137C18.2133 6.22072 18.2279 6.20547 18.2381 6.18715C18.2483 6.16882 18.2538 6.14809 18.254 6.12702C18.2542 6.10595 18.2492 6.0853 18.2393 6.06715C18.2295 6.049 18.2153 6.03399 18.198 6.02363L11.1189 1.71811C11.0452 1.67398 11.0083 1.69605 11.0083 1.78432L10.9801 10.4159" stroke="#0F1520" stroke-width="2.88762"/>
<path d="M36.7228 26.8897C36.7399 26.9001 36.7593 26.9056 36.7791 26.9056C36.7989 26.9056 36.8183 26.9001 36.8355 26.8897C36.8526 26.8793 36.8668 26.8643 36.8767 26.8463C36.8866 26.8282 36.8918 26.8078 36.8918 26.7869L36.8832 17.4294C36.8832 17.4086 36.8779 17.3881 36.868 17.3701C36.8582 17.3521 36.8439 17.3371 36.8268 17.3267L29.1494 12.6924C29.1323 12.682 29.1129 12.6765 29.0931 12.6765C29.0733 12.6765 29.0539 12.682 29.0367 12.6924C29.0196 12.7028 29.0054 12.7178 28.9955 12.7358C28.9856 12.7539 28.9804 12.7743 28.9803 12.7951L28.9847 22.1093C28.9847 22.1301 28.9899 22.1506 28.9998 22.1686C29.0097 22.1867 29.0239 22.2016 29.041 22.212L36.7228 26.8897Z" stroke="#0F1520" stroke-width="2.88762"/>
<path d="M27.7233 43.2887C27.7409 43.2996 27.7608 43.3055 27.7811 43.3056C27.8015 43.3057 27.8215 43.3002 27.8391 43.2895C27.8568 43.2788 27.8714 43.2634 27.8815 43.2448C27.8916 43.2262 27.8969 43.2051 27.8967 43.1837V34.6549C27.8969 34.6334 27.8916 34.6123 27.8815 34.5938C27.8714 34.5752 27.8568 34.5597 27.8391 34.5491C27.8215 34.5384 27.8015 34.5328 27.7811 34.533C27.7608 34.5331 27.7409 34.5389 27.7233 34.5498L20.72 38.8143C20.7025 38.8249 20.6879 38.8401 20.6777 38.8586C20.6676 38.877 20.6622 38.898 20.6622 38.9193C20.6622 38.9406 20.6676 38.9615 20.6777 38.98C20.6879 38.9984 20.7025 39.0137 20.72 39.0243L27.7233 43.2887Z" stroke="#0F1520" stroke-width="2.88762"/>
<path d="M16.5174 18.1812L10.7604 21.6809C10.6736 21.7342 10.5747 21.7623 10.4738 21.7623C10.3729 21.7623 10.2737 21.7342 10.186 21.6809L2.69505 17.1288C2.68108 17.1204 2.66946 17.1083 2.66138 17.0937C2.6533 17.079 2.64905 17.0624 2.64905 17.0455C2.64905 17.0285 2.6533 17.0119 2.66138 16.9973C2.66946 16.9826 2.68108 16.9705 2.69505 16.9622L11.6946 11.4946L20.3669 6.2189C20.3851 6.20791 20.4 6.19205 20.4104 6.1729C20.4207 6.15375 20.426 6.132 20.4258 6.1098C20.4256 6.08761 20.4198 6.06576 20.4091 6.04645C20.3984 6.02713 20.3831 6.01103 20.3648 5.99975L13.4178 1.78098C13.1288 1.60443 13.1505 1.53671 13.4829 1.5778L32.297 3.86525C32.3657 3.87337 32.4309 3.9019 32.4849 3.94754C32.539 3.99319 32.5798 4.05409 32.6027 4.12321L36.3243 15.4303C36.3994 15.6601 36.3373 15.7142 36.1379 15.5924L28.6773 11.054C28.6108 11.0132 28.5351 10.9916 28.4578 10.9916C28.3806 10.9916 28.3044 11.0132 28.2372 11.054L16.5174 18.1812Z" fill="#FE7024"/>
<path d="M10.965 10.4666C10.9707 10.4499 10.9758 10.4331 10.9801 10.4164L11.0083 1.7848C11.0083 1.69653 11.0452 1.67447 11.1189 1.7186L18.198 6.02412C18.2153 6.03448 18.2295 6.04949 18.2393 6.06764C18.2492 6.08579 18.2542 6.10644 18.254 6.12751C18.2538 6.14857 18.2483 6.16931 18.2381 6.18763C18.2279 6.20596 18.2133 6.22121 18.1959 6.23186C16.0095 7.5468 13.6794 8.966 11.2056 10.4894C11.1218 10.5412 11.0416 10.5336 10.965 10.4666Z" fill="#FE7024"/>
<path d="M17.2677 28.6493L11.2117 32.3361C11.1896 32.3492 11.1647 32.3561 11.1394 32.3559C11.114 32.3558 11.0892 32.3487 11.0673 32.3353C11.0454 32.3219 11.0271 32.3027 11.0145 32.2796C11.0018 32.2566 10.995 32.2304 10.9949 32.2037L10.9927 23.0722C10.9927 23.0057 11.0095 22.9402 11.0415 22.8825C11.0734 22.8248 11.1194 22.7768 11.1748 22.7434L17.1269 19.1342L27.6806 12.7124C27.702 12.6992 27.7263 12.6921 27.7512 12.6919C27.776 12.6917 27.8004 12.6985 27.822 12.7114C27.8436 12.7244 27.8615 12.7432 27.874 12.7658C27.8864 12.7884 27.893 12.8141 27.893 12.8403L27.8908 21.9444C27.8909 22.0194 27.8721 22.0933 27.8363 22.1586C27.8006 22.2238 27.7491 22.2783 27.6871 22.3165L17.2677 28.6493Z" fill="#FE7024"/>
<path d="M36.7228 26.8902L29.041 22.2125C29.0239 22.2021 29.0097 22.1871 28.9998 22.1691C28.9899 22.1511 28.9847 22.1306 28.9847 22.1098L28.9803 12.7956C28.9804 12.7748 28.9856 12.7543 28.9955 12.7363C29.0054 12.7183 29.0196 12.7033 29.0367 12.6929C29.0539 12.6825 29.0733 12.677 29.0931 12.677C29.1129 12.677 29.1323 12.6825 29.1494 12.6929L36.8268 17.3272C36.8439 17.3376 36.8582 17.3525 36.868 17.3706C36.8779 17.3886 36.8832 17.4091 36.8832 17.4299L36.8918 26.7874C36.8918 26.8083 36.8866 26.8287 36.8767 26.8468C36.8668 26.8648 36.8526 26.8798 36.8355 26.8902C36.8183 26.9006 36.7989 26.9061 36.7791 26.9061C36.7593 26.9061 36.7399 26.9006 36.7228 26.8902Z" fill="#FE7024"/>
<path d="M2.14956 18.1225L9.84864 22.8184C9.86353 22.8274 9.87595 22.8404 9.88468 22.856C9.89342 22.8716 9.89817 22.8893 9.89849 22.9074L9.91149 32.2535C9.91155 32.272 9.90699 32.2901 9.89827 32.3062C9.88954 32.3222 9.87696 32.3355 9.86179 32.3447C9.84663 32.354 9.82941 32.3589 9.81188 32.3589C9.79434 32.3589 9.77712 32.3541 9.76193 32.3448L2.05202 27.6695C2.03681 27.6602 2.02419 27.6469 2.01544 27.6309C2.00668 27.6149 2.00211 27.5967 2.00217 27.5782L2 18.2138C1.99994 18.1953 2.0045 18.1772 2.01323 18.1611C2.02195 18.1451 2.03453 18.1318 2.0497 18.1226C2.06487 18.1133 2.08209 18.1084 2.09962 18.1084C2.11715 18.1084 2.13438 18.1132 2.14956 18.1225Z" fill="#FE7024"/>
<path d="M17.1251 42.4334L6.48901 41.1413C6.44863 41.1365 6.41035 41.1198 6.37854 41.0932C6.34673 41.0665 6.32267 41.031 6.30911 40.9907L2.52243 29.4667C2.51794 29.4535 2.51761 29.4389 2.52148 29.4251C2.52536 29.4112 2.53325 29.3986 2.54411 29.389C2.58457 29.354 2.61997 29.3464 2.65031 29.3662C5.21956 30.9353 7.75196 32.4732 10.2475 33.9799C10.3095 34.0174 10.3796 34.0371 10.4508 34.0371C10.5219 34.0371 10.5916 34.0174 10.6528 33.9799L17.4936 29.8274L28.16 23.3394C28.2419 23.2894 28.3349 23.2629 28.4296 23.2625C28.5243 23.2621 28.6174 23.2878 28.6997 23.3371L36.208 27.9006C36.222 27.909 36.2336 27.9211 36.2417 27.9357C36.2498 27.9504 36.254 27.967 36.254 27.9839C36.254 28.0009 36.2498 28.0175 36.2417 28.0321C36.2336 28.0468 36.222 28.0589 36.208 28.0673L18.4863 38.8288C18.4714 38.8378 18.4591 38.8507 18.4505 38.8664C18.4419 38.882 18.4374 38.8997 18.4374 38.9178C18.4374 38.9359 18.4419 38.9536 18.4505 38.9692C18.4591 38.9849 18.4714 38.9978 18.4863 39.0068L25.6608 43.3443C25.7287 43.3854 25.7244 43.4128 25.6478 43.4265C25.5857 43.4372 25.504 43.4364 25.4029 43.4242C22.6386 43.0848 19.8793 42.7546 17.1251 42.4334Z" fill="#FE7024"/>
<path d="M27.7233 43.289L20.72 39.0245C20.7025 39.0139 20.6879 38.9987 20.6777 38.9802C20.6676 38.9618 20.6622 38.9408 20.6622 38.9195C20.6622 38.8982 20.6676 38.8773 20.6777 38.8588C20.6879 38.8404 20.7025 38.8251 20.72 38.8145L27.7233 34.5501C27.7409 34.5392 27.7608 34.5333 27.7811 34.5332C27.8015 34.5331 27.8215 34.5386 27.8391 34.5493C27.8568 34.56 27.8714 34.5754 27.8815 34.594C27.8916 34.6126 27.8969 34.6337 27.8967 34.6551V43.184C27.8969 43.2054 27.8916 43.2265 27.8815 43.2451C27.8714 43.2636 27.8568 43.2791 27.8391 43.2897C27.8215 43.3004 27.8015 43.306 27.7811 43.3058C27.7608 43.3057 27.7409 43.2999 27.7233 43.289Z" fill="#FE7024"/>
<path d="M63.7978 37.361C56.29 37.361 51.8142 31.9467 51.8142 24.7276C51.8142 17.5086 56.29 12.0943 63.7978 12.0943C71.3056 12.0943 75.7814 17.5086 75.7814 24.7276C75.7814 31.9467 71.3056 37.361 63.7978 37.361ZM63.7978 34.1124C68.5985 34.1124 72.1719 31.6218 72.1719 24.7276C72.1719 17.8334 68.5985 15.3429 63.7978 15.3429C58.961 15.3429 55.4237 17.8334 55.4237 24.7276C55.4237 31.6218 58.961 34.1124 63.7978 34.1124ZM89.9274 22.201H82.9971V37H79.3875V18.9524H89.9274V22.201ZM105.211 21.1181V11.7333H108.82V37H105.211V34.8343C104.128 36.3864 102.359 37.361 99.8327 37.361C93.9852 37.361 91.9278 33.2822 91.9278 27.9762C91.9278 22.6702 93.9852 18.5914 99.8327 18.5914C102.359 18.5914 104.128 19.566 105.211 21.1181ZM100.374 34.1124C103.911 34.1124 105.211 32.3076 105.211 27.9762C105.211 23.6448 103.911 21.84 100.374 21.84C96.8368 21.84 95.5373 23.6448 95.5373 27.9762C95.5373 32.3076 96.8368 34.1124 100.374 34.1124ZM113.517 11.7333H117.127V15.3429H113.517V11.7333ZM113.517 18.9524H117.127V37H113.517V18.9524ZM131.654 37.361C124.146 37.361 121.114 31.2248 121.114 24.7276C121.114 18.2305 124.146 12.0943 132.015 12.0943C138.007 12.0943 141.291 15.6677 141.652 20.721H138.079C137.79 17.5447 136.202 15.3429 132.015 15.3429C126.817 15.3429 124.724 17.8334 124.724 24.7276C124.724 31.6218 127.178 34.1124 132.376 34.1124C136.563 34.1124 138.404 31.1887 138.765 28.0123H129.308V24.7637H142.374V37H138.765V33.571H138.187C137.538 34.9787 136.13 37.361 131.654 37.361ZM155.168 37.361C147.011 37.361 146 31.5496 146 27.9762C146 22.3092 148.238 18.5914 153.797 18.5914C159.355 18.5914 161.593 21.9483 161.593 27.6152V29.6005H149.682C149.935 32.1271 150.945 34.1124 155.168 34.1124C156.612 34.1124 158.02 34.1124 160.366 33.4627V36.639C157.551 37.361 156.54 37.361 155.168 37.361ZM149.61 26.3519H157.984C157.912 23.2116 156.72 21.84 153.797 21.84C151.017 21.84 149.79 23.4282 149.61 26.3519ZM176.77 22.201H168.829V37H165.219V18.9524H180.379V37H176.77V22.201Z" fill="#FE7024"/>
</svg>
