<svg width="119" height="46" viewBox="0 0 119 46" fill="none" xmlns="http://www.w3.org/2000/svg">
<circle cx="23" cy="23" r="23" fill="white" fill-opacity="0.05"/>
<circle cx="23" cy="23" r="22.7125" stroke="url(#paint0_linear_1_237)" stroke-opacity="0.2" stroke-width="0.575"/>
<path d="M14.9495 23.0865L23.1002 9.77441L31.2509 23.0865L23.1002 27.8348L14.9495 23.0865Z" fill="white"/>
<path d="M23.0996 29.331L30.9892 24.4329L23.0996 35.65L15.0238 24.4329L23.0996 29.331Z" fill="white"/>
<path d="M62.27 34.5C61.05 34.5 60.1 34.18 59.42 33.54C58.74 32.9 58.4 32 58.4 30.84V17.1C58.4 15.98 58.73 15.1 59.39 14.46C60.07 13.82 61.01 13.5 62.21 13.5H71.51C72.29 13.5 72.68 13.82 72.68 14.46C72.68 14.74 72.58 14.96 72.38 15.12C72.18 15.28 71.89 15.36 71.51 15.36H62.24C61.76 15.36 61.37 15.52 61.07 15.84C60.79 16.16 60.65 16.58 60.65 17.1V22.83H69.23C70.01 22.83 70.4 23.15 70.4 23.79C70.4 24.09 70.29 24.32 70.07 24.48C69.87 24.64 69.59 24.72 69.23 24.72H60.65V30.9C60.65 31.42 60.79 31.84 61.07 32.16C61.37 32.48 61.76 32.64 62.24 32.64H72.17C72.95 32.64 73.34 32.95 73.34 33.57C73.34 33.87 73.23 34.1 73.01 34.26C72.81 34.42 72.53 34.5 72.17 34.5H62.27ZM85.4544 34.8C85.0944 34.8 84.8144 34.7 84.6144 34.5C84.4344 34.28 84.3444 33.98 84.3444 33.6V15.36H77.4744C77.1144 15.36 76.8244 15.29 76.6044 15.15C76.4044 14.99 76.3044 14.76 76.3044 14.46C76.3044 13.82 76.6944 13.5 77.4744 13.5H93.4944C94.2744 13.5 94.6644 13.82 94.6644 14.46C94.6644 14.74 94.5644 14.96 94.3644 15.12C94.1644 15.28 93.8744 15.36 93.4944 15.36H86.6244V33.6C86.6244 33.98 86.5144 34.28 86.2944 34.5C86.0944 34.7 85.8144 34.8 85.4544 34.8ZM99.4409 34.8C99.1009 34.8 98.8309 34.7 98.6309 34.5C98.4309 34.28 98.3309 33.98 98.3309 33.6V14.4C98.3309 14.02 98.4309 13.73 98.6309 13.53C98.8309 13.31 99.1009 13.2 99.4409 13.2C99.8009 13.2 100.081 13.31 100.281 13.53C100.481 13.73 100.581 14.02 100.581 14.4V22.77H113.751V14.4C113.751 14.02 113.851 13.73 114.051 13.53C114.251 13.31 114.531 13.2 114.891 13.2C115.231 13.2 115.501 13.31 115.701 13.53C115.901 13.73 116.001 14.02 116.001 14.4V33.6C116.001 33.98 115.901 34.28 115.701 34.5C115.501 34.7 115.231 34.8 114.891 34.8C114.551 34.8 114.271 34.7 114.051 34.5C113.851 34.28 113.751 33.98 113.751 33.6V24.66H100.581V33.6C100.581 33.98 100.481 34.28 100.281 34.5C100.081 34.7 99.8009 34.8 99.4409 34.8Z" fill="white"/>
<defs>
<linearGradient id="paint0_linear_1_237" x1="20.7" y1="-3.7375" x2="31.9125" y2="50.025" gradientUnits="userSpaceOnUse">
<stop stop-color="white"/>
<stop offset="1" stop-color="white" stop-opacity="0"/>
</linearGradient>
</defs>
</svg>
