<svg width="122" height="46" viewBox="0 0 122 46" fill="none" xmlns="http://www.w3.org/2000/svg">
<circle cx="23" cy="23" r="23" fill="white" fill-opacity="0.05"/>
<circle cx="23" cy="23" r="22.7125" stroke="url(#paint0_linear_1_245)" stroke-opacity="0.2" stroke-width="0.575"/>
<path d="M35.6232 26.5238C33.9537 33.2203 27.1713 37.2957 20.474 35.6258C13.7795 33.9563 9.70416 27.1734 11.3744 20.4775C13.0431 13.7802 19.8256 9.70458 26.5208 11.374C33.2176 13.0435 37.2927 19.8271 35.623 26.5239L35.6231 26.5238H35.6232Z" fill="#F7931A"/>
<path fill-rule="evenodd" clip-rule="evenodd" d="M29.1783 21.7392C29.4271 20.0758 28.1607 19.1816 26.4289 18.5851L26.9907 16.3317L25.619 15.99L25.0721 18.184C24.7115 18.094 24.3412 18.0093 23.9731 17.9253L24.524 15.7168L23.1532 15.375L22.5911 17.6276C22.2927 17.5597 21.9996 17.4925 21.7152 17.4218L21.7168 17.4147L19.8253 16.9423L19.4604 18.4073C19.4604 18.4073 20.478 18.6406 20.4566 18.655C21.012 18.7936 21.1125 19.1613 21.0958 19.4527L20.4559 22.0198C20.4941 22.0295 20.5437 22.0436 20.5985 22.0656L20.5587 22.0556L20.5585 22.0556C20.5247 22.0471 20.4895 22.0383 20.4535 22.0297L19.5565 25.6258C19.4886 25.7946 19.3163 26.0478 18.928 25.9516C18.9417 25.9716 17.931 25.7028 17.931 25.7028L17.25 27.273L19.035 27.7179C19.2304 27.767 19.4236 27.8173 19.6147 27.8671L19.6149 27.8672C19.7485 27.902 19.8811 27.9366 20.013 27.9703L19.4453 30.2495L20.8154 30.5912L21.3775 28.3363C21.7518 28.4379 22.1151 28.5316 22.4707 28.62L21.9104 30.8643L23.2822 31.2061L23.8497 28.9312C26.1887 29.3738 27.9474 29.1954 28.6877 27.0798C29.2842 25.3765 28.658 24.394 27.4275 23.7533C28.3237 23.5466 28.9988 22.9571 29.1788 21.7394L29.1784 21.7391L29.1783 21.7392ZM22.0901 26.7549L22.0901 26.7549C21.9894 26.7283 21.8995 26.7046 21.8228 26.6855L22.576 23.666C22.6695 23.6894 22.7838 23.715 22.9133 23.7441C24.0709 24.0039 26.4428 24.5362 26.0444 26.1339H26.0443C25.6554 27.6966 23.2093 27.0505 22.0901 26.7549ZM23.1451 22.3423C24.0781 22.5913 26.1136 23.1346 26.4681 21.7142H26.4682C26.8302 20.2616 24.8521 19.8236 23.8859 19.6097C23.7772 19.5857 23.6814 19.5644 23.6031 19.5449L22.9202 22.2834C22.9846 22.2995 23.0603 22.3197 23.1451 22.3423Z" fill="white"/>
<path d="M62.27 34.5C61.05 34.5 60.1 34.18 59.42 33.54C58.74 32.88 58.4 31.98 58.4 30.84V17.1C58.4 15.98 58.73 15.1 59.39 14.46C60.07 13.82 61.01 13.5 62.21 13.5H69.32C71.34 13.5 72.91 14 74.03 15C75.15 16 75.71 17.41 75.71 19.23C75.71 20.27 75.44 21.18 74.9 21.96C74.36 22.72 73.62 23.3 72.68 23.7V23.76C73.74 24.14 74.57 24.74 75.17 25.56C75.77 26.36 76.07 27.31 76.07 28.41C76.07 30.29 75.5 31.78 74.36 32.88C73.22 33.96 71.66 34.5 69.68 34.5H62.27ZM69.56 22.86C70.74 22.86 71.68 22.53 72.38 21.87C73.08 21.21 73.43 20.33 73.43 19.23C73.43 17.97 73.08 17.01 72.38 16.35C71.68 15.69 70.66 15.36 69.32 15.36H62.24C61.78 15.36 61.4 15.53 61.1 15.87C60.8 16.19 60.65 16.6 60.65 17.1V22.86H69.56ZM69.56 32.61C70.94 32.61 71.99 32.26 72.71 31.56C73.43 30.84 73.79 29.8 73.79 28.44C73.79 27.26 73.41 26.34 72.65 25.68C71.89 25.02 70.85 24.69 69.53 24.69H60.65V30.9C60.65 31.4 60.8 31.81 61.1 32.13C61.4 32.45 61.78 32.61 62.24 32.61H69.56ZM79.989 17.25C79.989 16.11 80.319 15.2 80.979 14.52C81.659 13.84 82.639 13.5 83.919 13.5H89.529C94.969 13.5 97.689 15.76 97.689 20.28C97.689 22.46 97.029 24.11 95.709 25.23C94.389 26.35 92.399 26.91 89.739 26.91L95.559 32.94C95.739 33.12 95.829 33.35 95.829 33.63C95.829 33.99 95.679 34.28 95.379 34.5C95.139 34.68 94.889 34.77 94.629 34.77C94.229 34.77 93.849 34.57 93.489 34.17L86.589 26.91H82.539V33.51C82.539 33.91 82.419 34.23 82.179 34.47C81.959 34.69 81.649 34.8 81.249 34.8C80.849 34.8 80.539 34.69 80.319 34.47C80.099 34.23 79.989 33.91 79.989 33.51V17.25ZM89.679 24.84C91.519 24.84 92.879 24.5 93.759 23.82C94.659 23.12 95.109 21.94 95.109 20.28C95.109 18.6 94.659 17.4 93.759 16.68C92.859 15.94 91.499 15.57 89.679 15.57H84.069C83.609 15.57 83.239 15.72 82.959 16.02C82.679 16.32 82.539 16.73 82.539 17.25V24.84H89.679ZM111.273 34.8C109.193 34.8 107.363 34.36 105.783 33.48C104.223 32.58 103.013 31.32 102.153 29.7C101.293 28.06 100.863 26.17 100.863 24.03C100.863 21.87 101.293 19.97 102.153 18.33C103.013 16.69 104.223 15.43 105.783 14.55C107.363 13.65 109.183 13.2 111.243 13.2C112.963 13.2 114.543 13.49 115.983 14.07C117.443 14.65 118.583 15.46 119.403 16.5C119.563 16.68 119.643 16.9 119.643 17.16C119.643 17.48 119.503 17.74 119.223 17.94C119.043 18.06 118.843 18.12 118.623 18.12C118.243 18.12 117.923 17.97 117.663 17.67C117.023 16.85 116.153 16.22 115.053 15.78C113.953 15.34 112.683 15.12 111.243 15.12C109.583 15.12 108.143 15.48 106.923 16.2C105.703 16.92 104.763 17.95 104.103 19.29C103.463 20.63 103.143 22.21 103.143 24.03C103.143 25.83 103.463 27.4 104.103 28.74C104.763 30.06 105.703 31.08 106.923 31.8C108.163 32.52 109.613 32.88 111.273 32.88C112.813 32.88 114.153 32.66 115.293 32.22C116.453 31.76 117.363 31.13 118.023 30.33C118.323 30.01 118.643 29.85 118.983 29.85C119.223 29.85 119.423 29.92 119.583 30.06C119.863 30.3 120.003 30.56 120.003 30.84C120.003 31.08 119.913 31.31 119.733 31.53C118.913 32.53 117.743 33.33 116.223 33.93C114.723 34.51 113.073 34.8 111.273 34.8Z" fill="white"/>
<defs>
<linearGradient id="paint0_linear_1_245" x1="20.7" y1="-3.7375" x2="31.9125" y2="50.025" gradientUnits="userSpaceOnUse">
<stop stop-color="white"/>
<stop offset="1" stop-color="white" stop-opacity="0"/>
</linearGradient>
</defs>
</svg>
