<svg width="158" height="46" viewBox="0 0 158 46" fill="none" xmlns="http://www.w3.org/2000/svg">
<circle cx="23" cy="23" r="23" fill="white" fill-opacity="0.05"/>
<circle cx="23" cy="23" r="22.7125" stroke="url(#paint0_linear_1_256)" stroke-opacity="0.2" stroke-width="0.575"/>
<path d="M29.4152 18.7231C28.9949 18.4622 28.4543 18.4622 27.9738 18.7231L24.611 20.8778L22.3292 22.2483L19.0262 24.4045C18.606 24.6654 18.0653 24.6654 17.5848 24.4045L15.0037 22.7071C14.7842 22.5665 14.6022 22.3661 14.4758 22.1257C14.3493 21.8852 14.2828 21.6131 14.2827 21.3361V18.0704C14.2827 17.5481 14.5232 17.0258 15.0037 16.6994L17.5848 15.0675C18.0051 14.8061 18.5457 14.8061 19.0262 15.0675L21.6074 16.7648C21.8269 16.9054 22.009 17.1058 22.1354 17.3462C22.2618 17.5867 22.3283 17.8589 22.3283 18.1358V20.29L24.6101 18.8536V16.6344C24.6101 16.1121 24.3701 15.5898 23.8897 15.2634L19.086 12.196C18.6657 11.9347 18.1255 11.9347 17.6451 12.196L12.7205 15.3284C12.24 15.5898 12 16.1121 12 16.6344V22.7706C12 23.2929 12.24 23.8137 12.7205 24.1416L17.5848 27.2104C18.0051 27.4718 18.5457 27.4718 19.0262 27.2104L22.3292 25.1212L24.611 23.6852L27.914 21.596C28.3343 21.3351 28.8749 21.3351 29.3554 21.596L31.9366 23.2284C32.1565 23.3691 32.3387 23.5698 32.4652 23.8106C32.5918 24.0514 32.6582 24.324 32.6579 24.6014V27.8652C32.6579 28.3875 32.4179 28.9098 31.9375 29.2361L29.4152 30.8685C28.9949 31.1294 28.4543 31.1294 27.9738 30.8685L25.3926 29.2361C25.1732 29.0955 24.9913 28.8951 24.8649 28.6547C24.7386 28.4142 24.6721 28.1421 24.6722 27.8652V25.774L22.389 27.2104V29.3646C22.389 29.8869 22.6294 30.4092 23.1099 30.7356L27.9738 33.804C28.3945 34.0653 28.9347 34.0653 29.4152 33.804L34.2795 30.7351C34.499 30.5945 34.6809 30.3941 34.8072 30.1536C34.9336 29.9132 35 29.641 35 29.3641V23.1615C35 22.6392 34.76 22.1169 34.2795 21.7905L29.4152 18.7231Z" fill="#8247E5"/>
<path d="M59.36 34.8C59.02 34.8 58.75 34.7 58.55 34.5C58.35 34.28 58.25 33.98 58.25 33.6V20.04C58.25 17.92 58.85 16.25 60.05 15.03C61.25 13.81 62.9 13.2 65 13.2C66.22 13.2 67.34 13.52 68.36 14.16C69.4 14.78 70.18 15.61 70.7 16.65C71.22 15.59 71.98 14.75 72.98 14.13C74 13.51 75.14 13.2 76.4 13.2C78.5 13.2 80.15 13.81 81.35 15.03C82.55 16.23 83.15 17.9 83.15 20.04V33.6C83.15 33.98 83.04 34.28 82.82 34.5C82.62 34.7 82.35 34.8 82.01 34.8C81.65 34.8 81.37 34.7 81.17 34.5C80.99 34.28 80.9 33.98 80.9 33.6V20.04C80.9 18.46 80.54 17.25 79.82 16.41C79.12 15.57 77.96 15.15 76.34 15.15C74.92 15.15 73.81 15.59 73.01 16.47C72.21 17.33 71.81 18.52 71.81 20.04V33.6C71.81 33.98 71.71 34.28 71.51 34.5C71.31 34.7 71.04 34.8 70.7 34.8C70.36 34.8 70.09 34.7 69.89 34.5C69.71 34.28 69.62 33.98 69.62 33.6V20.04C69.62 18.56 69.2 17.38 68.36 16.5C67.52 15.6 66.42 15.15 65.06 15.15C63.44 15.15 62.27 15.57 61.55 16.41C60.85 17.25 60.5 18.46 60.5 20.04V33.6C60.5 33.98 60.4 34.28 60.2 34.5C60 34.7 59.72 34.8 59.36 34.8ZM88.7741 34.8C88.4341 34.8 88.1641 34.7 87.9641 34.5C87.7641 34.28 87.6641 33.98 87.6641 33.6V21.87C87.6641 19.15 88.4241 17.03 89.9441 15.51C91.4841 13.97 93.6141 13.2 96.3341 13.2C99.0341 13.2 101.154 13.97 102.694 15.51C104.234 17.05 105.004 19.17 105.004 21.87V33.6C105.004 33.98 104.904 34.28 104.704 34.5C104.504 34.7 104.224 34.8 103.864 34.8C103.524 34.8 103.244 34.7 103.024 34.5C102.824 34.28 102.724 33.98 102.724 33.6V26.85H89.9141V33.6C89.9141 33.98 89.8141 34.28 89.6141 34.5C89.4141 34.7 89.1341 34.8 88.7741 34.8ZM102.724 24.99V21.78C102.724 19.64 102.174 18 101.074 16.86C99.9741 15.7 98.3941 15.12 96.3341 15.12C94.2541 15.12 92.6641 15.69 91.5641 16.83C90.4641 17.97 89.9141 19.62 89.9141 21.78V24.99H102.724ZM116.07 34.8C115.71 34.8 115.43 34.7 115.23 34.5C115.05 34.28 114.96 33.98 114.96 33.6V15.36H108.09C107.73 15.36 107.44 15.29 107.22 15.15C107.02 14.99 106.92 14.76 106.92 14.46C106.92 13.82 107.31 13.5 108.09 13.5H124.11C124.89 13.5 125.28 13.82 125.28 14.46C125.28 14.74 125.18 14.96 124.98 15.12C124.78 15.28 124.49 15.36 124.11 15.36H117.24V33.6C117.24 33.98 117.13 34.28 116.91 34.5C116.71 34.7 116.43 34.8 116.07 34.8ZM131.016 34.8C130.676 34.8 130.406 34.7 130.206 34.5C130.006 34.28 129.906 33.98 129.906 33.6V14.4C129.906 14.02 130.006 13.73 130.206 13.53C130.406 13.31 130.676 13.2 131.016 13.2C131.376 13.2 131.656 13.31 131.856 13.53C132.056 13.75 132.156 14.04 132.156 14.4V33.6C132.156 33.96 132.056 34.25 131.856 34.47C131.656 34.69 131.376 34.8 131.016 34.8ZM147.542 34.8C145.462 34.8 143.632 34.36 142.052 33.48C140.492 32.58 139.282 31.32 138.422 29.7C137.562 28.06 137.132 26.17 137.132 24.03C137.132 21.87 137.562 19.97 138.422 18.33C139.282 16.69 140.492 15.43 142.052 14.55C143.632 13.65 145.452 13.2 147.512 13.2C149.232 13.2 150.812 13.49 152.252 14.07C153.712 14.65 154.852 15.46 155.672 16.5C155.832 16.68 155.912 16.9 155.912 17.16C155.912 17.48 155.772 17.74 155.492 17.94C155.312 18.06 155.112 18.12 154.892 18.12C154.512 18.12 154.192 17.97 153.932 17.67C153.292 16.85 152.422 16.22 151.322 15.78C150.222 15.34 148.952 15.12 147.512 15.12C145.852 15.12 144.412 15.48 143.192 16.2C141.972 16.92 141.032 17.95 140.372 19.29C139.732 20.63 139.412 22.21 139.412 24.03C139.412 25.83 139.732 27.4 140.372 28.74C141.032 30.06 141.972 31.08 143.192 31.8C144.432 32.52 145.882 32.88 147.542 32.88C149.082 32.88 150.422 32.66 151.562 32.22C152.722 31.76 153.632 31.13 154.292 30.33C154.592 30.01 154.912 29.85 155.252 29.85C155.492 29.85 155.692 29.92 155.852 30.06C156.132 30.3 156.272 30.56 156.272 30.84C156.272 31.08 156.182 31.31 156.002 31.53C155.182 32.53 154.012 33.33 152.492 33.93C150.992 34.51 149.342 34.8 147.542 34.8Z" fill="white"/>
<defs>
<linearGradient id="paint0_linear_1_256" x1="20.7" y1="-3.7375" x2="31.9125" y2="50.025" gradientUnits="userSpaceOnUse">
<stop stop-color="white"/>
<stop offset="1" stop-color="white" stop-opacity="0"/>
</linearGradient>
</defs>
</svg>
