<svg width="140" height="46" viewBox="0 0 140 46" fill="none" xmlns="http://www.w3.org/2000/svg">
<circle cx="23" cy="23" r="23" fill="white" fill-opacity="0.05"/>
<circle cx="23" cy="23" r="22.7125" stroke="url(#paint0_linear_1_262)" stroke-opacity="0.2" stroke-width="0.575"/>
<path d="M14.522 29.9924L13.4892 29.994C13.326 29.9924 13.1657 29.9818 13.0086 29.962C12.5208 29.8997 12.2032 29.6454 12.0556 29.1992C11.9897 29.0005 11.9824 28.8002 12.0336 28.5984C12.065 28.4732 12.1393 28.3069 12.2564 28.0995C15.3 22.7227 18.3398 17.3332 21.3758 11.931C21.5821 11.5639 21.7492 11.3314 21.8769 11.2336C22.4055 10.8297 23.204 10.9575 23.5417 11.5553C24.3017 12.8999 25.1471 14.3872 26.078 16.0172C26.4438 16.6576 26.7366 17.0964 26.367 17.723C24.0875 21.5941 21.7981 25.4813 19.4988 29.3848C19.2319 29.8388 18.8904 29.9864 18.3717 29.9886C17.0895 29.9947 15.8073 29.9833 14.522 29.9924Z" fill="#E84142"/>
<path d="M30.5301 29.9883L29.4631 29.9928C28.3056 29.9867 27.1524 29.9862 26.0035 29.9913C25.5715 29.9933 25.2899 29.9685 25.1586 29.9168C24.6505 29.7183 24.3068 29.138 24.4642 28.595C24.5088 28.4414 24.5905 28.2599 24.7091 28.0505C26.0628 25.6559 27.0604 23.8775 27.7017 22.7155C28.1953 21.8196 29.2927 21.8317 29.7878 22.7155C30.7638 24.458 31.7903 26.2704 32.8671 28.1524C33.1599 28.665 33.1964 29.1935 32.7683 29.6392C32.5361 29.881 32.2486 30.0012 31.9059 29.9997C31.4511 29.9976 30.9925 29.9938 30.5301 29.9883Z" fill="#E84142"/>
<path d="M59.36 34.8C59.02 34.8 58.75 34.7 58.55 34.5C58.35 34.28 58.25 33.98 58.25 33.6V21.87C58.25 19.15 59.01 17.03 60.53 15.51C62.07 13.97 64.2 13.2 66.92 13.2C69.62 13.2 71.74 13.97 73.28 15.51C74.82 17.05 75.59 19.17 75.59 21.87V33.6C75.59 33.98 75.49 34.28 75.29 34.5C75.09 34.7 74.81 34.8 74.45 34.8C74.11 34.8 73.83 34.7 73.61 34.5C73.41 34.28 73.31 33.98 73.31 33.6V26.85H60.5V33.6C60.5 33.98 60.4 34.28 60.2 34.5C60 34.7 59.72 34.8 59.36 34.8ZM73.31 24.99V21.78C73.31 19.64 72.76 18 71.66 16.86C70.56 15.7 68.98 15.12 66.92 15.12C64.84 15.12 63.25 15.69 62.15 16.83C61.05 17.97 60.5 19.62 60.5 21.78V24.99H73.31ZM87.4885 34.8C86.2685 34.8 85.2985 34.33 84.5785 33.39C83.8585 32.43 83.1785 30.89 82.5385 28.77L78.2485 14.55C78.1885 14.33 78.1585 14.15 78.1585 14.01C78.1585 13.47 78.5085 13.2 79.2085 13.2C79.5685 13.2 79.8385 13.28 80.0185 13.44C80.1985 13.58 80.3485 13.86 80.4685 14.28L84.7285 28.56C85.2085 30.16 85.6485 31.29 86.0485 31.95C86.4685 32.59 86.9485 32.91 87.4885 32.91C88.0085 32.91 88.4785 32.58 88.8985 31.92C89.3185 31.26 89.7685 30.14 90.2485 28.56L94.5085 14.25C94.6285 13.85 94.7785 13.58 94.9585 13.44C95.1385 13.28 95.4085 13.2 95.7685 13.2C96.4685 13.2 96.8185 13.47 96.8185 14.01C96.8185 14.15 96.7885 14.33 96.7285 14.55L92.4085 28.77C91.7285 30.99 91.0185 32.55 90.2785 33.45C89.5585 34.35 88.6285 34.8 87.4885 34.8ZM100.493 34.8C100.153 34.8 99.8828 34.7 99.6828 34.5C99.4828 34.28 99.3828 33.98 99.3828 33.6V21.87C99.3828 19.15 100.143 17.03 101.663 15.51C103.203 13.97 105.333 13.2 108.053 13.2C110.753 13.2 112.873 13.97 114.413 15.51C115.953 17.05 116.723 19.17 116.723 21.87V33.6C116.723 33.98 116.623 34.28 116.423 34.5C116.223 34.7 115.943 34.8 115.583 34.8C115.243 34.8 114.963 34.7 114.743 34.5C114.543 34.28 114.443 33.98 114.443 33.6V26.85H101.633V33.6C101.633 33.98 101.533 34.28 101.333 34.5C101.133 34.7 100.853 34.8 100.493 34.8ZM114.443 24.99V21.78C114.443 19.64 113.893 18 112.793 16.86C111.693 15.7 110.113 15.12 108.053 15.12C105.973 15.12 104.383 15.69 103.283 16.83C102.183 17.97 101.633 19.62 101.633 21.78V24.99H114.443ZM137.784 33.12C137.964 33.32 138.054 33.56 138.054 33.84C138.054 34.18 137.904 34.44 137.604 34.62C137.404 34.74 137.214 34.8 137.034 34.8C136.694 34.8 136.374 34.6 136.074 34.2L128.994 25.35L121.884 34.2C121.584 34.6 121.264 34.8 120.924 34.8C120.624 34.8 120.384 34.7 120.204 34.5C120.024 34.32 119.934 34.1 119.934 33.84C119.934 33.56 120.024 33.32 120.204 33.12L127.704 23.76L120.624 14.91C120.464 14.69 120.384 14.45 120.384 14.19C120.384 13.81 120.524 13.54 120.804 13.38C120.984 13.26 121.164 13.2 121.344 13.2C121.644 13.2 121.954 13.4 122.274 13.8L128.994 22.17L135.684 13.8C135.984 13.4 136.304 13.2 136.644 13.2C136.804 13.2 136.974 13.26 137.154 13.38C137.454 13.56 137.604 13.83 137.604 14.19C137.604 14.49 137.524 14.73 137.364 14.91L130.254 23.76L137.784 33.12Z" fill="white"/>
<defs>
<linearGradient id="paint0_linear_1_262" x1="20.7" y1="-3.7375" x2="31.9125" y2="50.025" gradientUnits="userSpaceOnUse">
<stop stop-color="white"/>
<stop offset="1" stop-color="white" stop-opacity="0"/>
</linearGradient>
</defs>
</svg>
