<svg width="122" height="46" viewBox="0 0 122 46" fill="none" xmlns="http://www.w3.org/2000/svg">
<circle cx="23" cy="23" r="23" fill="white" fill-opacity="0.05"/>
<circle cx="23" cy="23" r="22.7125" stroke="url(#paint0_linear_1_270)" stroke-opacity="0.2" stroke-width="0.575"/>
<path d="M12.8402 18.6058V28.4137C12.8402 29.0442 13.1705 29.6146 13.7209 29.9349L22.2177 34.8388C22.7581 35.1491 23.4287 35.1491 23.9691 34.8388L32.4659 29.9349C33.0063 29.6246 33.3466 29.0442 33.3466 28.4137V18.6058C33.3466 17.9753 33.0164 17.4049 32.4659 17.0846L23.9691 12.1807C23.4287 11.8704 22.7581 11.8704 22.2177 12.1807L13.7209 17.0846C13.1805 17.3949 12.8502 17.9753 12.8502 18.6058H12.8402Z" fill="#213147"/>
<path d="M24.9398 25.4129L23.7288 28.7356C23.6988 28.8257 23.6988 28.9258 23.7288 29.0258L25.8105 34.7404L28.2224 33.3493L25.3301 25.4129C25.26 25.2328 25.0098 25.2328 24.9398 25.4129Z" fill="#12AAFF"/>
<path d="M27.3722 19.8292C27.3021 19.6491 27.0519 19.6491 26.9819 19.8292L25.7709 23.1519C25.7409 23.2419 25.7409 23.342 25.7709 23.4421L29.1836 32.7996L31.5956 31.4085L27.3722 19.8392V19.8292Z" fill="#12AAFF"/>
<path d="M23.0889 12.5512C23.1489 12.5512 23.209 12.5713 23.259 12.6013L32.4464 17.9055C32.5564 17.9656 32.6165 18.0857 32.6165 18.2058V28.8143C32.6165 28.9343 32.5464 29.0544 32.4464 29.1145L23.259 34.4187C23.209 34.4488 23.1489 34.4688 23.0889 34.4688C23.0288 34.4688 22.9688 34.4488 22.9187 34.4187L13.7314 29.1145C13.6213 29.0544 13.5612 28.9343 13.5612 28.8143V18.1958C13.5612 18.0757 13.6313 17.9556 13.7314 17.8955L22.9187 12.5913C22.9688 12.5612 23.0288 12.5412 23.0889 12.5412V12.5512ZM23.0889 11C22.7586 11 22.4384 11.0801 22.1381 11.2502L12.9508 16.5544C12.3603 16.8947 12 17.5152 12 18.1958V28.8042C12 29.4848 12.3603 30.1053 12.9508 30.4456L22.1381 35.7498C22.4283 35.9199 22.7586 36 23.0889 36C23.4191 36 23.7394 35.9199 24.0396 35.7498L33.227 30.4456C33.8175 30.1053 34.1777 29.4848 34.1777 28.8042V18.1958C34.1777 17.5152 33.8175 16.8947 33.227 16.5544L24.0296 11.2502C23.7394 11.0801 23.4091 11 23.0789 11H23.0889Z" fill="#9DCCED"/>
<path d="M17.0044 32.807L17.8551 30.4851L19.5565 31.8962L17.9652 33.3574L17.0044 32.807Z" fill="#213147"/>
<path d="M22.3087 17.4451H19.9768C19.8067 17.4451 19.6465 17.5552 19.5865 17.7153L14.5925 31.4062L17.0044 32.7973L22.5088 17.7153C22.5589 17.5752 22.4588 17.4351 22.3187 17.4351L22.3087 17.4451Z" fill="white"/>
<path d="M26.3912 17.4451H24.0593C23.8892 17.4451 23.729 17.5552 23.669 17.7153L17.9644 33.3478L20.3763 34.7389L26.5813 17.7153C26.6314 17.5752 26.5313 17.4351 26.3912 17.4351V17.4451Z" fill="white"/>
<path d="M59.36 34.8C59.02 34.8 58.75 34.7 58.55 34.5C58.35 34.28 58.25 33.98 58.25 33.6V21.87C58.25 19.15 59.01 17.03 60.53 15.51C62.07 13.97 64.2 13.2 66.92 13.2C69.62 13.2 71.74 13.97 73.28 15.51C74.82 17.05 75.59 19.17 75.59 21.87V33.6C75.59 33.98 75.49 34.28 75.29 34.5C75.09 34.7 74.81 34.8 74.45 34.8C74.11 34.8 73.83 34.7 73.61 34.5C73.41 34.28 73.31 33.98 73.31 33.6V26.85H60.5V33.6C60.5 33.98 60.4 34.28 60.2 34.5C60 34.7 59.72 34.8 59.36 34.8ZM73.31 24.99V21.78C73.31 19.64 72.76 18 71.66 16.86C70.56 15.7 68.98 15.12 66.92 15.12C64.84 15.12 63.25 15.69 62.15 16.83C61.05 17.97 60.5 19.62 60.5 21.78V24.99H73.31ZM80.1062 17.25C80.1062 16.11 80.4362 15.2 81.0962 14.52C81.7762 13.84 82.7562 13.5 84.0362 13.5H89.6462C95.0862 13.5 97.8062 15.76 97.8062 20.28C97.8062 22.46 97.1462 24.11 95.8262 25.23C94.5062 26.35 92.5162 26.91 89.8562 26.91L95.6762 32.94C95.8562 33.12 95.9462 33.35 95.9462 33.63C95.9462 33.99 95.7962 34.28 95.4962 34.5C95.2562 34.68 95.0062 34.77 94.7462 34.77C94.3462 34.77 93.9662 34.57 93.6062 34.17L86.7062 26.91H82.6562V33.51C82.6562 33.91 82.5362 34.23 82.2962 34.47C82.0762 34.69 81.7662 34.8 81.3662 34.8C80.9662 34.8 80.6562 34.69 80.4362 34.47C80.2162 34.23 80.1062 33.91 80.1062 33.51V17.25ZM89.7962 24.84C91.6362 24.84 92.9962 24.5 93.8762 23.82C94.7762 23.12 95.2262 21.94 95.2262 20.28C95.2262 18.6 94.7762 17.4 93.8762 16.68C92.9762 15.94 91.6162 15.57 89.7962 15.57H84.1862C83.7262 15.57 83.3562 15.72 83.0762 16.02C82.7962 16.32 82.6562 16.73 82.6562 17.25V24.84H89.7962ZM105.6 34.5C104.38 34.5 103.43 34.18 102.75 33.54C102.07 32.88 101.73 31.98 101.73 30.84V17.1C101.73 15.98 102.06 15.1 102.72 14.46C103.4 13.82 104.34 13.5 105.54 13.5H112.65C114.67 13.5 116.24 14 117.36 15C118.48 16 119.04 17.41 119.04 19.23C119.04 20.27 118.77 21.18 118.23 21.96C117.69 22.72 116.95 23.3 116.01 23.7V23.76C117.07 24.14 117.9 24.74 118.5 25.56C119.1 26.36 119.4 27.31 119.4 28.41C119.4 30.29 118.83 31.78 117.69 32.88C116.55 33.96 114.99 34.5 113.01 34.5H105.6ZM112.89 22.86C114.07 22.86 115.01 22.53 115.71 21.87C116.41 21.21 116.76 20.33 116.76 19.23C116.76 17.97 116.41 17.01 115.71 16.35C115.01 15.69 113.99 15.36 112.65 15.36H105.57C105.11 15.36 104.73 15.53 104.43 15.87C104.13 16.19 103.98 16.6 103.98 17.1V22.86H112.89ZM112.89 32.61C114.27 32.61 115.32 32.26 116.04 31.56C116.76 30.84 117.12 29.8 117.12 28.44C117.12 27.26 116.74 26.34 115.98 25.68C115.22 25.02 114.18 24.69 112.86 24.69H103.98V30.9C103.98 31.4 104.13 31.81 104.43 32.13C104.73 32.45 105.11 32.61 105.57 32.61H112.89Z" fill="white"/>
<defs>
<linearGradient id="paint0_linear_1_270" x1="20.7" y1="-3.7375" x2="31.9125" y2="50.025" gradientUnits="userSpaceOnUse">
<stop stop-color="white"/>
<stop offset="1" stop-color="white" stop-opacity="0"/>
</linearGradient>
</defs>
</svg>
