<svg width="31" height="31" viewBox="0 0 31 31" fill="none" xmlns="http://www.w3.org/2000/svg">
<rect width="31" height="31" rx="15.5" fill="#E84142"/>
<path d="M9.79385 21.509L9.05925 21.5101C8.94313 21.509 8.82917 21.5014 8.71737 21.4874C8.37045 21.443 8.14452 21.2621 8.03958 20.9448C7.99269 20.8034 7.98746 20.661 8.02389 20.5174C8.04625 20.4284 8.09908 20.3101 8.18238 20.1626C10.3472 16.3381 12.5094 12.5047 14.6688 8.66218C14.8156 8.40109 14.9344 8.23574 15.0253 8.16614C15.4012 7.8789 15.9692 7.96978 16.2094 8.39495C16.75 9.35134 17.3513 10.4092 18.0135 11.5687C18.2736 12.0241 18.4819 12.3363 18.219 12.782C16.5976 15.5354 14.9692 18.3003 13.3338 21.0768C13.1439 21.3997 12.901 21.5047 12.5321 21.5063C11.6201 21.5106 10.708 21.5025 9.79385 21.509Z" fill="white"/>
<path d="M21.1798 21.5071L20.4209 21.5103C19.5976 21.506 18.7773 21.5056 17.9601 21.5092C17.6529 21.5107 17.4526 21.493 17.3592 21.4562C16.9978 21.315 16.7533 20.9023 16.8653 20.5161C16.897 20.4068 16.9551 20.2777 17.0395 20.1288C18.0023 18.4255 18.7119 17.1606 19.1681 16.3341C19.5191 15.6968 20.2997 15.7055 20.6519 16.3341C21.3461 17.5735 22.0762 18.8626 22.8421 20.2012C23.0504 20.5658 23.0764 20.9418 22.7718 21.2588C22.6067 21.4308 22.4022 21.5163 22.1584 21.5152C21.8349 21.5137 21.5087 21.511 21.1798 21.5071Z" fill="white"/>
</svg>
