<svg width="24" height="27" viewBox="0 0 24 27" fill="none" xmlns="http://www.w3.org/2000/svg">
<path d="M0.906738 8.21267V18.8051C0.906738 19.4861 1.26342 20.1022 1.8579 20.4481L11.0344 25.7443C11.6181 26.0794 12.3423 26.0794 12.926 25.7443L22.1025 20.4481C22.6862 20.113 23.0537 19.4861 23.0537 18.8051V8.21267C23.0537 7.53172 22.697 6.91563 22.1025 6.56975L12.926 1.27352C12.3423 0.93845 11.6181 0.93845 11.0344 1.27352L1.8579 6.56975C1.27423 6.90482 0.917547 7.53172 0.917547 8.21267H0.906738Z" fill="#213147"/>
<path d="M13.9733 15.5675L12.6654 19.156C12.633 19.2533 12.633 19.3614 12.6654 19.4695L14.9136 25.6412L17.5185 24.1388L14.3948 15.5675C14.3192 15.373 14.0489 15.373 13.9733 15.5675Z" fill="#12AAFF"/>
<path d="M16.6014 9.53483C16.5257 9.34028 16.2555 9.34028 16.1798 9.53483L14.872 13.1233C14.8395 13.2206 14.8395 13.3287 14.872 13.4368L18.5577 23.5428L21.1626 22.0404L16.6014 9.54564V9.53483Z" fill="#12AAFF"/>
<path d="M11.976 1.67534C12.0408 1.67534 12.1057 1.69696 12.1597 1.72938L22.0821 7.45797C22.201 7.52282 22.2658 7.65252 22.2658 7.78223V19.2394C22.2658 19.3691 22.1902 19.4988 22.0821 19.5637L12.1597 25.2922C12.1057 25.3247 12.0408 25.3463 11.976 25.3463C11.9111 25.3463 11.8463 25.3247 11.7922 25.2922L1.8699 19.5637C1.751 19.4988 1.68615 19.3691 1.68615 19.2394V7.77142C1.68615 7.64171 1.76181 7.51201 1.8699 7.44716L11.7922 1.71857C11.8463 1.68615 11.9111 1.66453 11.976 1.66453V1.67534ZM11.976 0C11.6193 0 11.2734 0.0864692 10.9492 0.270216L1.02682 5.9988C0.389111 6.36629 0 7.03643 0 7.77142V19.2286C0 19.9636 0.389111 20.6337 1.02682 21.0012L10.9492 26.7298C11.2626 26.9135 11.6193 27 11.976 27C12.3327 27 12.6785 26.9135 13.0028 26.7298L22.9251 21.0012C23.5628 20.6337 23.952 19.9636 23.952 19.2286V7.77142C23.952 7.03643 23.5628 6.36629 22.9251 5.9988L12.992 0.270216C12.6785 0.0864692 12.3219 0 11.9652 0H11.976Z" fill="#9DCCED"/>
<path d="M5.40332 23.5506L6.32206 21.043L8.15953 22.567L6.44095 24.1451L5.40332 23.5506Z" fill="#213147"/>
<path d="M11.1323 6.96149H8.61388C8.43013 6.96149 8.25719 7.08039 8.19234 7.25333L2.79883 22.0396L5.40371 23.542L11.3485 7.25333C11.4025 7.102 11.2944 6.95068 11.1431 6.95068L11.1323 6.96149Z" fill="white"/>
<path d="M15.5428 6.96149H13.0244C12.8406 6.96149 12.6677 7.08039 12.6028 7.25333L6.44189 24.1364L9.04678 25.6388L15.7481 7.25333C15.8022 7.102 15.6941 6.95068 15.5428 6.95068V6.96149Z" fill="white"/>
</svg>
