<svg width="27" height="27" viewBox="0 0 27 27" fill="none" xmlns="http://www.w3.org/2000/svg">
<path d="M26.5931 16.7657C24.79 23.9979 17.465 28.3993 10.2319 26.5958C3.00187 24.7928 -1.39951 17.4673 0.404305 10.2357C2.20654 3.00266 9.5316 -1.39906 16.7624 0.403966C23.995 2.20699 28.3961 9.5333 26.5929 16.7658L26.593 16.7657H26.5931Z" fill="#F7931A"/>
<path fill-rule="evenodd" clip-rule="evenodd" d="M19.6326 11.5963C19.9013 9.79972 18.5335 8.83401 16.6632 8.18978L17.2699 5.75619L15.7885 5.38706L15.1979 7.75658C14.8084 7.65944 14.4085 7.56792 14.011 7.47719L14.6059 5.09203L13.1254 4.7229L12.5184 7.1557C12.1961 7.08232 11.8795 7.0098 11.5724 6.93339L11.5742 6.92574L9.53128 6.41559L9.1372 7.99782C9.1372 7.99782 10.2363 8.24976 10.2131 8.26527C10.813 8.41499 10.9215 8.8121 10.9035 9.12686L10.2123 11.8993C10.2536 11.9098 10.3072 11.925 10.3663 11.9487L10.3233 11.938C10.2868 11.9288 10.2488 11.9193 10.2098 11.91L9.241 15.7938C9.16769 15.976 8.98161 16.2495 8.56219 16.1457C8.57704 16.1672 7.48549 15.877 7.48549 15.877L6.75 17.5727L8.6778 18.0533C8.88884 18.1062 9.09738 18.1606 9.30381 18.2144L9.30404 18.2144L9.30426 18.2145C9.44849 18.2521 9.59169 18.2894 9.73399 18.3258L9.12097 20.7873L10.6007 21.1564L11.2077 18.7211C11.612 18.8308 12.0043 18.932 12.3883 19.0274L11.7833 21.4513L13.2647 21.8205L13.8777 19.3636C16.4038 19.8417 18.3032 19.6489 19.1027 17.3641C19.747 15.5245 19.0707 14.4634 17.7417 13.7715C18.7096 13.5482 19.4387 12.9116 19.6331 11.5965L19.6327 11.5961L19.6326 11.5963ZM16.2481 16.3429C15.828 18.0306 13.1862 17.3329 11.9775 17.0136L11.9773 17.0136C11.8687 16.9849 11.7716 16.9592 11.6888 16.9387L12.5023 13.6776C12.6033 13.7028 12.7267 13.7305 12.8665 13.7619L12.8665 13.7619C14.1168 14.0425 16.6784 14.6174 16.2481 16.3429H16.2481ZM13.1162 12.2468C14.1239 12.5157 16.3222 13.1024 16.7051 11.5685H16.7052C17.0961 9.99961 14.9597 9.52661 13.9163 9.2956C13.7989 9.26961 13.6954 9.24668 13.6108 9.2256L12.8733 12.1832C12.9429 12.2006 13.0246 12.2224 13.1162 12.2468Z" fill="white"/>
</svg>
