<svg width="31" height="31" viewBox="0 0 31 31" fill="none" xmlns="http://www.w3.org/2000/svg">
<rect width="31" height="31" rx="15.5" fill="#8247E5"/>
<path d="M19.8721 12.1951C19.5615 11.9935 19.1618 11.9935 18.8067 12.1951L16.3212 13.8601L14.6346 14.9191L12.1933 16.5853C11.8827 16.7869 11.483 16.7869 11.1279 16.5853L9.2201 15.2737C9.05785 15.165 8.92336 15.0102 8.82991 14.8244C8.73645 14.6386 8.68728 14.4283 8.68725 14.2143V11.6907C8.68725 11.2871 8.86498 10.8835 9.2201 10.6313L11.1279 9.37033C11.4385 9.16834 11.8382 9.16834 12.1933 9.37033L14.1011 10.6819C14.2634 10.7905 14.3979 10.9454 14.4914 11.1312C14.5848 11.317 14.634 11.5273 14.634 11.7413V13.4059L16.3205 12.2959V10.5811C16.3205 10.1775 16.1431 9.77393 15.788 9.52173L12.2375 7.15149C11.9269 6.9495 11.5276 6.9495 11.1724 7.15149L7.53252 9.57194C7.17739 9.77393 7 10.1775 7 10.5811V15.3227C7 15.7263 7.17739 16.1288 7.53252 16.3821L11.1279 18.7535C11.4385 18.9555 11.8382 18.9555 12.1933 18.7535L14.6346 17.1391L16.3212 16.0295L18.7625 14.4151C19.0731 14.2135 19.4728 14.2135 19.8279 14.4151L21.7357 15.6765C21.8982 15.7852 22.033 15.9403 22.1265 16.1264C22.22 16.3125 22.2691 16.5231 22.2689 16.7374V19.2594C22.2689 19.663 22.0915 20.0666 21.7364 20.3188L19.8721 21.5802C19.5615 21.7818 19.1618 21.7818 18.8067 21.5802L16.8989 20.3188C16.7367 20.2102 16.6022 20.0553 16.5089 19.8695C16.4155 19.6837 16.3663 19.4734 16.3664 19.2594V17.6435L14.6788 18.7535V20.4181C14.6788 20.8217 14.8565 21.2253 15.2117 21.4775L18.8067 23.8485C19.1177 24.0505 19.517 24.0505 19.8721 23.8485L23.4675 21.4771C23.6297 21.3685 23.7641 21.2136 23.8575 21.0278C23.9509 20.842 24 20.6317 24 20.4177V15.6248C24 15.2212 23.8226 14.8176 23.4675 14.5654L19.8721 12.1951Z" fill="white"/>
</svg>
