<svg width="23" height="25" viewBox="0 0 23 25" fill="none" xmlns="http://www.w3.org/2000/svg">
<path d="M2.484 19.4304C3.41111 20.5118 4.99321 21.5664 5.99343 21.1687C6.99227 20.7708 7.39679 17.8607 7.03856 17.4742C6.68034 17.0876 4.7677 13.9343 3.28025 14.3887C1.79268 14.8446 1.55655 18.3492 2.484 19.4304Z" fill="#C00000"/>
<path d="M2.84788 11.3989C3.75563 12.8836 6.44824 14.7588 8.17905 14.0919C9.90986 13.425 8.72563 11.088 7.76594 9.53927C7.62741 9.31578 7.56775 8.3749 6.95232 7.56864C6.3369 6.76238 5.36093 6.23936 4.62224 6.48285C2.52745 7.17314 1.91853 10.3163 2.84599 11.3975L2.84788 11.3989Z" fill="#C00000"/>
<path d="M10.6227 10.7733C11.5498 11.8547 11.7329 12.9652 13.1664 12.9109C14.5999 12.8566 15.7 9.50787 15.6602 8.15118C15.6203 6.79527 14.302 3.73353 11.9753 4.38296C9.64946 5.03237 9.55893 7.80563 10.621 10.7738L10.6227 10.7733Z" fill="#C00000"/>
<path d="M16.2924 15.0398C16.55 16.3729 17.625 17.3023 19.2216 16.8717C20.8178 16.4411 21.2363 12.4008 20.8775 12.0126C20.5196 11.625 19.8054 9.5999 18.3176 10.0563C16.83 10.5122 15.724 13.3289 16.2924 15.0398Z" fill="#C00000"/>
<path d="M8.11289 24.3948C10.2797 25.2401 11.0348 23.0252 13.4263 22.3742C15.8179 21.7232 17.8671 22.7857 18.56 20.6974C19.4491 18.0211 17.2668 18.4222 15.5168 17.2354C13.7661 16.0481 14.2148 14.6891 11.5112 15.3293C8.59579 16.0202 10.0725 18.8908 8.94097 19.9408C7.29671 21.4663 6.77601 23.8726 8.11269 24.3941L8.11289 24.3948Z" fill="#C00000"/>
<path d="M0.484067 13.5119C0.671173 14.018 1.56434 14.5093 2.02645 14.3084C2.48855 14.1076 2.46865 13.5867 2.25348 12.949C2.0382 12.3113 1.0108 11.5072 0.653319 11.6506C0.295787 11.7938 0.297098 13.006 0.484242 13.5119L0.484067 13.5119Z" fill="#C00000"/>
<path d="M2.64889 5.24414C2.83599 5.75024 3.08984 6.65097 3.81474 6.37743C4.53953 6.10385 4.76353 5.60856 4.54836 4.97085C4.33307 4.33318 3.4561 3.39367 3.09882 3.53775C2.74128 3.68097 2.46192 4.73819 2.64889 5.24414Z" fill="#C00000"/>
<path d="M10.7814 2.43566C10.9685 2.94176 11.9166 3.78994 12.3785 3.58917C12.8404 3.38833 13.0727 2.42556 12.8575 1.78785C12.6422 1.15017 11.653 0.148689 11.2955 0.292256C10.938 0.435479 10.5943 1.92919 10.7812 2.43497L10.7814 2.43566Z" fill="#C00000"/>
<path d="M17.7381 8.7446C17.9252 9.2507 18.2558 9.75802 18.7178 9.55726C19.1797 9.35642 19.7035 8.91771 19.4883 8.28001C19.273 7.64235 18.7671 6.18146 18.4095 6.32507C18.052 6.46831 17.5508 8.23818 17.7379 8.74391L17.7381 8.7446Z" fill="#C00000"/>
</svg>
