<svg width="25" height="25" viewBox="0 0 25 25" fill="none" xmlns="http://www.w3.org/2000/svg">
<path d="M12.5 25C19.4036 25 25 19.4036 25 12.5C25 5.59644 19.4036 0 12.5 0C5.59644 0 0 5.59644 0 12.5C0 19.4036 5.59644 25 12.5 25Z" fill="#DEC799"/>
<path d="M18.3828 10.4797L17.2695 5.46875L15.0844 8.91719C13.3856 8.50701 11.6136 8.50701 9.91484 8.91719L7.73594 5.46875L6.61875 10.4797C5.41953 11.4391 4.6875 12.693 4.6875 14.0695C4.6875 17.0852 8.18437 19.5297 12.4977 19.5297C16.8109 19.5297 20.3078 17.0844 20.3078 14.0695C20.307 12.693 19.5812 11.4391 18.382 10.4797H18.3828ZM8.15781 12.7734H7.6375L8.90859 11.3078H9.83359L8.15781 12.7734ZM12.4578 16.3547L10.2969 12.5484L10.8305 12.2438L11.3125 13.0914H13.6727L14.1758 12.2398L14.7039 12.5539L12.4578 16.3547ZM16.843 12.7734L15.1664 11.3078H16.0977L17.3672 12.7734H16.843ZM12.468 15.1289L11.6609 13.707H13.3078L12.468 15.1289Z" fill="white"/>
</svg>
